<mxfile host="Electron" agent="Mozilla/5.0 (X11; Linux x86_64) AppleWebKit/537.36 (KHTML, like Gecko) draw.io/24.7.17 Chrome/128.0.6613.36 Electron/32.0.1 Safari/537.36" version="24.7.17" pages="3">
  <diagram id="C5RBs43oDa-KdzZeNtuy" name="PUT">
    <mxGraphModel dx="930" dy="929" grid="0" gridSize="10" guides="1" tooltips="1" connect="1" arrows="1" fold="1" page="1" pageScale="1" pageWidth="827" pageHeight="1169" math="0" shadow="0">
      <root>
        <mxCell id="WIyWlLk6GJQsqaUBKTNV-0" />
        <mxCell id="WIyWlLk6GJQsqaUBKTNV-1" parent="WIyWlLk6GJQsqaUBKTNV-0" />
        <mxCell id="qsvIlpljKb_14aQnCwQf-7" style="edgeStyle=orthogonalEdgeStyle;rounded=0;orthogonalLoop=1;jettySize=auto;html=1;exitX=0.5;exitY=1;exitDx=0;exitDy=0;entryX=0.5;entryY=0;entryDx=0;entryDy=0;" parent="WIyWlLk6GJQsqaUBKTNV-1" target="qsvIlpljKb_14aQnCwQf-6" edge="1">
          <mxGeometry relative="1" as="geometry">
            <mxPoint x="308" y="550.3333740234375" as="targetPoint" />
            <mxPoint x="308" y="540" as="sourcePoint" />
          </mxGeometry>
        </mxCell>
        <mxCell id="qsvIlpljKb_14aQnCwQf-9" value="User Input != null" style="edgeLabel;html=1;align=center;verticalAlign=middle;resizable=0;points=[];" parent="qsvIlpljKb_14aQnCwQf-7" vertex="1" connectable="0">
          <mxGeometry x="-0.1243" y="2" relative="1" as="geometry">
            <mxPoint as="offset" />
          </mxGeometry>
        </mxCell>
        <mxCell id="qsvIlpljKb_14aQnCwQf-8" style="edgeStyle=orthogonalEdgeStyle;rounded=0;orthogonalLoop=1;jettySize=auto;html=1;" parent="WIyWlLk6GJQsqaUBKTNV-1" target="qsvIlpljKb_14aQnCwQf-5" edge="1">
          <mxGeometry relative="1" as="geometry">
            <mxPoint x="348" y="500" as="sourcePoint" />
          </mxGeometry>
        </mxCell>
        <mxCell id="qsvIlpljKb_14aQnCwQf-10" value="else" style="edgeLabel;html=1;align=center;verticalAlign=middle;resizable=0;points=[];" parent="qsvIlpljKb_14aQnCwQf-8" vertex="1" connectable="0">
          <mxGeometry x="0.0207" y="-2" relative="1" as="geometry">
            <mxPoint as="offset" />
          </mxGeometry>
        </mxCell>
        <mxCell id="CJ5eCMolqXmtPA-JWYKL-5" style="edgeStyle=orthogonalEdgeStyle;rounded=0;orthogonalLoop=1;jettySize=auto;html=1;" edge="1" parent="WIyWlLk6GJQsqaUBKTNV-1" source="qsvIlpljKb_14aQnCwQf-2" target="CJ5eCMolqXmtPA-JWYKL-0">
          <mxGeometry relative="1" as="geometry" />
        </mxCell>
        <mxCell id="qsvIlpljKb_14aQnCwQf-2" value="Receive Request" style="rounded=0;whiteSpace=wrap;html=1;" parent="WIyWlLk6GJQsqaUBKTNV-1" vertex="1">
          <mxGeometry x="248" y="222" width="120" height="60" as="geometry" />
        </mxCell>
        <mxCell id="CJ5eCMolqXmtPA-JWYKL-14" style="edgeStyle=orthogonalEdgeStyle;rounded=0;orthogonalLoop=1;jettySize=auto;html=1;" edge="1" parent="WIyWlLk6GJQsqaUBKTNV-1" source="qsvIlpljKb_14aQnCwQf-5" target="CJ5eCMolqXmtPA-JWYKL-6">
          <mxGeometry relative="1" as="geometry" />
        </mxCell>
        <mxCell id="qsvIlpljKb_14aQnCwQf-5" value="Process Request" style="rounded=0;whiteSpace=wrap;html=1;" parent="WIyWlLk6GJQsqaUBKTNV-1" vertex="1">
          <mxGeometry x="458" y="470" width="120" height="60" as="geometry" />
        </mxCell>
        <mxCell id="qsvIlpljKb_14aQnCwQf-12" style="edgeStyle=orthogonalEdgeStyle;rounded=0;orthogonalLoop=1;jettySize=auto;html=1;entryX=0.5;entryY=0;entryDx=0;entryDy=0;" parent="WIyWlLk6GJQsqaUBKTNV-1" source="qsvIlpljKb_14aQnCwQf-6" target="qsvIlpljKb_14aQnCwQf-11" edge="1">
          <mxGeometry relative="1" as="geometry" />
        </mxCell>
        <mxCell id="qsvIlpljKb_14aQnCwQf-6" value="Get Input Content" style="rounded=0;whiteSpace=wrap;html=1;" parent="WIyWlLk6GJQsqaUBKTNV-1" vertex="1">
          <mxGeometry x="248" y="601" width="120" height="60" as="geometry" />
        </mxCell>
        <mxCell id="CJ5eCMolqXmtPA-JWYKL-4" style="edgeStyle=orthogonalEdgeStyle;rounded=0;orthogonalLoop=1;jettySize=auto;html=1;" edge="1" parent="WIyWlLk6GJQsqaUBKTNV-1" source="qsvIlpljKb_14aQnCwQf-11" target="CJ5eCMolqXmtPA-JWYKL-3">
          <mxGeometry relative="1" as="geometry" />
        </mxCell>
        <mxCell id="qsvIlpljKb_14aQnCwQf-11" value="Process Input" style="rounded=0;whiteSpace=wrap;html=1;" parent="WIyWlLk6GJQsqaUBKTNV-1" vertex="1">
          <mxGeometry x="248" y="718" width="120" height="60" as="geometry" />
        </mxCell>
        <mxCell id="CJ5eCMolqXmtPA-JWYKL-2" style="edgeStyle=orthogonalEdgeStyle;rounded=0;orthogonalLoop=1;jettySize=auto;html=1;" edge="1" parent="WIyWlLk6GJQsqaUBKTNV-1" source="CJ5eCMolqXmtPA-JWYKL-0" target="CJ5eCMolqXmtPA-JWYKL-1">
          <mxGeometry relative="1" as="geometry" />
        </mxCell>
        <mxCell id="CJ5eCMolqXmtPA-JWYKL-0" value="Extract Request Information" style="rounded=0;whiteSpace=wrap;html=1;" vertex="1" parent="WIyWlLk6GJQsqaUBKTNV-1">
          <mxGeometry x="248" y="346" width="120" height="60" as="geometry" />
        </mxCell>
        <mxCell id="CJ5eCMolqXmtPA-JWYKL-1" value="" style="rhombus;whiteSpace=wrap;html=1;" vertex="1" parent="WIyWlLk6GJQsqaUBKTNV-1">
          <mxGeometry x="268" y="460" width="80" height="80" as="geometry" />
        </mxCell>
        <mxCell id="CJ5eCMolqXmtPA-JWYKL-10" style="edgeStyle=orthogonalEdgeStyle;rounded=0;orthogonalLoop=1;jettySize=auto;html=1;" edge="1" parent="WIyWlLk6GJQsqaUBKTNV-1" source="CJ5eCMolqXmtPA-JWYKL-3" target="CJ5eCMolqXmtPA-JWYKL-8">
          <mxGeometry relative="1" as="geometry" />
        </mxCell>
        <mxCell id="CJ5eCMolqXmtPA-JWYKL-3" value="Post to Server" style="rounded=0;whiteSpace=wrap;html=1;" vertex="1" parent="WIyWlLk6GJQsqaUBKTNV-1">
          <mxGeometry x="248" y="835" width="120" height="60" as="geometry" />
        </mxCell>
        <mxCell id="CJ5eCMolqXmtPA-JWYKL-11" style="edgeStyle=orthogonalEdgeStyle;rounded=0;orthogonalLoop=1;jettySize=auto;html=1;" edge="1" parent="WIyWlLk6GJQsqaUBKTNV-1" source="CJ5eCMolqXmtPA-JWYKL-6" target="CJ5eCMolqXmtPA-JWYKL-8">
          <mxGeometry relative="1" as="geometry" />
        </mxCell>
        <mxCell id="CJ5eCMolqXmtPA-JWYKL-6" value="Send Response" style="rounded=0;whiteSpace=wrap;html=1;" vertex="1" parent="WIyWlLk6GJQsqaUBKTNV-1">
          <mxGeometry x="458" y="601" width="120" height="60" as="geometry" />
        </mxCell>
        <mxCell id="CJ5eCMolqXmtPA-JWYKL-8" value="End" style="ellipse;whiteSpace=wrap;html=1;aspect=fixed;" vertex="1" parent="WIyWlLk6GJQsqaUBKTNV-1">
          <mxGeometry x="478" y="825" width="80" height="80" as="geometry" />
        </mxCell>
        <mxCell id="CJ5eCMolqXmtPA-JWYKL-13" style="edgeStyle=orthogonalEdgeStyle;rounded=0;orthogonalLoop=1;jettySize=auto;html=1;" edge="1" parent="WIyWlLk6GJQsqaUBKTNV-1" source="CJ5eCMolqXmtPA-JWYKL-12" target="qsvIlpljKb_14aQnCwQf-2">
          <mxGeometry relative="1" as="geometry" />
        </mxCell>
        <mxCell id="CJ5eCMolqXmtPA-JWYKL-12" value="Start" style="ellipse;whiteSpace=wrap;html=1;aspect=fixed;" vertex="1" parent="WIyWlLk6GJQsqaUBKTNV-1">
          <mxGeometry x="268" y="82" width="80" height="80" as="geometry" />
        </mxCell>
      </root>
    </mxGraphModel>
  </diagram>
  <diagram id="3ahoem90xDfTwjd22jor" name="POST">
    <mxGraphModel dx="1054" dy="846" grid="0" gridSize="10" guides="1" tooltips="1" connect="1" arrows="1" fold="1" page="1" pageScale="1" pageWidth="827" pageHeight="1169" math="0" shadow="0">
      <root>
        <mxCell id="0" />
        <mxCell id="1" parent="0" />
      </root>
    </mxGraphModel>
  </diagram>
  <diagram id="szcTgiU6fP58oOXw3_0c" name="DELETE">
    <mxGraphModel dx="1054" dy="846" grid="0" gridSize="10" guides="1" tooltips="1" connect="1" arrows="1" fold="1" page="1" pageScale="1" pageWidth="827" pageHeight="1169" math="0" shadow="0">
      <root>
        <mxCell id="0" />
        <mxCell id="1" parent="0" />
      </root>
    </mxGraphModel>
  </diagram>
</mxfile>
